<mxfile host="app.diagrams.net" modified="2023-07-21T04:45:16.534Z" agent="Mozilla/5.0 (Windows NT 10.0; Win64; x64) AppleWebKit/537.36 (KHTML, like Gecko) Chrome/114.0.0.0 Safari/537.36" version="21.6.3" etag="Eq3sEEyBnD8r7-cpU1IA" type="google">
  <diagram name="Page-1" id="JnISzUlG7FxIyQuNsfFN">
    <mxGraphModel>
      <root>
        <mxCell id="0" />
        <mxCell id="1" parent="0" />
      </root>
    </mxGraphModel>
  </diagram>
</mxfile>
